<svg xmlns="http://www.w3.org/2000/svg" xmlns:xlink="http://www.w3.org/1999/xlink" width="100" zoomAndPan="magnify" viewBox="0 0 75 74.999997" height="100" preserveAspectRatio="xMidYMid meet" version="1.0"><defs><clipPath id="8a022d2e94"><path d="M 70.5 70.5 L 75 70.5 L 75 75 L 70.5 75 Z M 70.5 70.5 " clip-rule="nonzero"/></clipPath></defs><g clip-path="url(#8a022d2e94)"><path fill="#4466b9" d="M 100.5 85.5 C 100.5 93.785156 93.785156 100.5 85.5 100.5 C 77.214844 100.5 70.5 93.785156 70.5 85.5 C 70.5 77.214844 77.214844 70.5 85.5 70.5 C 93.785156 70.5 100.5 77.214844 100.5 85.5 " fill-opacity="1" fill-rule="nonzero"/><path fill="#527ac6" d="M 85.5 70.5 C 77.214844 70.5 70.5 77.214844 70.5 85.5 C 70.5 89.640625 72.179688 93.390625 74.890625 96.109375 L 96.109375 74.890625 C 93.390625 72.179688 89.640625 70.5 85.5 70.5 " fill-opacity="1" fill-rule="nonzero"/></g><path fill="#f4f6f5" d="M 72.570312 86.015625 C 72.285156 86.015625 72.050781 85.785156 72.050781 85.5 C 72.050781 79.300781 76.253906 73.929688 82.273438 72.445312 C 82.546875 72.371094 82.832031 72.542969 82.898438 72.820312 C 82.964844 73.097656 82.796875 73.378906 82.519531 73.449219 C 76.964844 74.820312 73.085938 79.777344 73.085938 85.5 C 73.085938 85.785156 72.855469 86.015625 72.570312 86.015625 " fill-opacity="1" fill-rule="nonzero"/><path fill="#fa8072" d="M 73.75 37.5 C 73.75 57.519531 57.519531 73.75 37.5 73.75 C 17.480469 73.75 1.25 57.519531 1.25 37.5 C 1.25 17.480469 17.480469 1.25 37.5 1.25 C 57.519531 1.25 73.75 17.480469 73.75 37.5 " fill-opacity="1" fill-rule="nonzero"/><path fill="#fa8072" d="M 37.5 1.25 C 17.480469 1.25 1.25 17.480469 1.25 37.5 C 1.25 47.507812 5.308594 56.570312 11.863281 63.132812 L 63.132812 11.863281 C 56.570312 5.308594 47.507812 1.25 37.5 1.25 " fill-opacity="1" fill-rule="nonzero"/><path fill="#facb07" d="M 53.75 32.5 L 42.5 32.5 L 42.5 21.25 C 42.5 18.484375 40.261719 16.25 37.5 16.25 C 34.734375 16.25 32.5 18.484375 32.5 21.25 L 32.5 32.5 L 21.25 32.5 C 18.484375 32.5 16.25 34.734375 16.25 37.5 C 16.25 40.261719 18.484375 42.5 21.25 42.5 L 32.5 42.5 L 32.5 53.75 C 32.5 56.511719 34.734375 58.75 37.5 58.75 C 40.261719 58.75 42.5 56.511719 42.5 53.75 L 42.5 42.5 L 53.75 42.5 C 56.511719 42.5 58.75 40.261719 58.75 37.5 C 58.75 34.734375 56.511719 32.5 53.75 32.5 " fill-opacity="1" fill-rule="nonzero"/><path fill="#211d1d" d="M 37.5 2.5 C 18.199219 2.5 2.5 18.199219 2.5 37.5 C 2.5 56.800781 18.199219 72.5 37.5 72.5 C 56.800781 72.5 72.5 56.800781 72.5 37.5 C 72.5 18.199219 56.800781 2.5 37.5 2.5 Z M 37.5 75 C 16.820312 75 0 58.179688 0 37.5 C 0 16.820312 16.820312 0 37.5 0 C 58.179688 0 75 16.820312 75 37.5 C 75 58.179688 58.179688 75 37.5 75 " fill-opacity="1" fill-rule="nonzero"/><path fill="#211d1d" d="M 35 7.597656 C 34.351562 7.597656 33.804688 7.097656 33.753906 6.445312 C 33.699219 5.757812 34.214844 5.15625 34.902344 5.101562 C 35.761719 5.035156 36.636719 5 37.5 5 C 38.1875 5 38.75 5.5625 38.75 6.25 C 38.75 6.9375 38.1875 7.5 37.5 7.5 C 36.703125 7.5 35.894531 7.535156 35.097656 7.597656 C 35.0625 7.597656 35.035156 7.597656 35 7.597656 " fill-opacity="1" fill-rule="nonzero"/><path fill="#211d1d" d="M 6.25 38.75 C 5.5625 38.75 5 38.1875 5 37.5 C 5 22.519531 15.15625 9.539062 29.703125 5.945312 C 30.367188 5.777344 31.050781 6.1875 31.210938 6.859375 C 31.375 7.527344 30.972656 8.207031 30.296875 8.375 C 16.875 11.6875 7.5 23.667969 7.5 37.5 C 7.5 38.1875 6.9375 38.75 6.25 38.75 " fill-opacity="1" fill-rule="nonzero"/><path fill="#211d1d" d="M 21.25 33.75 C 19.179688 33.75 17.5 35.429688 17.5 37.5 C 17.5 39.570312 19.179688 41.25 21.25 41.25 L 32.5 41.25 C 33.1875 41.25 33.75 41.8125 33.75 42.5 L 33.75 53.75 C 33.75 55.820312 35.429688 57.5 37.5 57.5 C 39.570312 57.5 41.25 55.820312 41.25 53.75 L 41.25 42.5 C 41.25 41.8125 41.8125 41.25 42.5 41.25 L 53.75 41.25 C 55.820312 41.25 57.5 39.570312 57.5 37.5 C 57.5 35.429688 55.820312 33.75 53.75 33.75 L 42.5 33.75 C 41.8125 33.75 41.25 33.1875 41.25 32.5 L 41.25 21.25 C 41.25 19.179688 39.570312 17.5 37.5 17.5 C 35.429688 17.5 33.75 19.179688 33.75 21.25 L 33.75 32.5 C 33.75 33.1875 33.1875 33.75 32.5 33.75 Z M 37.5 60 C 34.050781 60 31.25 57.195312 31.25 53.75 L 31.25 43.75 L 21.25 43.75 C 17.800781 43.75 15 40.945312 15 37.5 C 15 34.050781 17.800781 31.25 21.25 31.25 L 31.25 31.25 L 31.25 21.25 C 31.25 17.800781 34.050781 15 37.5 15 C 40.945312 15 43.75 17.800781 43.75 21.25 L 43.75 31.25 L 53.75 31.25 C 57.195312 31.25 60 34.050781 60 37.5 C 60 40.945312 57.195312 43.75 53.75 43.75 L 43.75 43.75 L 43.75 53.75 C 43.75 57.195312 40.945312 60 37.5 60 " fill-opacity="1" fill-rule="nonzero"/></svg>