<svg xmlns="http://www.w3.org/2000/svg" xmlns:xlink="http://www.w3.org/1999/xlink" width="300" zoomAndPan="magnify" viewBox="0 0 224.87999 64.499998" height="86" preserveAspectRatio="xMidYMid meet" version="1.0"><defs><g/><clipPath id="60542ea469"><path d="M 45.421875 5.144531 L 64.59375 5.144531 L 64.59375 58.859375 L 45.421875 58.859375 Z M 45.421875 5.144531 " clip-rule="nonzero"/></clipPath><clipPath id="8e9dcb5326"><path d="M 46.40625 5.144531 L 63.609375 5.144531 C 64.152344 5.144531 64.59375 5.582031 64.59375 6.125 L 64.59375 57.878906 C 64.59375 58.421875 64.152344 58.859375 63.609375 58.859375 L 46.40625 58.859375 C 45.863281 58.859375 45.421875 58.421875 45.421875 57.878906 L 45.421875 6.125 C 45.421875 5.582031 45.863281 5.144531 46.40625 5.144531 Z M 46.40625 5.144531 " clip-rule="nonzero"/></clipPath><clipPath id="7332574917"><path d="M 64.59375 5.085938 L 80.984375 5.085938 L 80.984375 58.804688 L 64.59375 58.804688 Z M 64.59375 5.085938 " clip-rule="nonzero"/></clipPath><clipPath id="f90c096534"><path d="M 65.574219 5.085938 L 80.003906 5.085938 C 80.261719 5.085938 80.511719 5.191406 80.699219 5.375 C 80.882812 5.558594 80.984375 5.808594 80.984375 6.070312 L 80.984375 57.820312 C 80.984375 58.082031 80.882812 58.332031 80.699219 58.515625 C 80.511719 58.699219 80.261719 58.804688 80.003906 58.804688 L 65.574219 58.804688 C 65.316406 58.804688 65.066406 58.699219 64.878906 58.515625 C 64.695312 58.332031 64.59375 58.082031 64.59375 57.820312 L 64.59375 6.070312 C 64.59375 5.808594 64.695312 5.558594 64.878906 5.375 C 65.066406 5.191406 65.316406 5.085938 65.574219 5.085938 Z M 65.574219 5.085938 " clip-rule="nonzero"/></clipPath><clipPath id="6feebd2e25"><path d="M 80 4 L 102 4 L 102 60 L 80 60 Z M 80 4 " clip-rule="nonzero"/></clipPath><clipPath id="defcd4a526"><path d="M 80.03125 6.492188 L 93.574219 4.425781 L 101.683594 57.511719 L 88.140625 59.578125 Z M 80.03125 6.492188 " clip-rule="nonzero"/></clipPath><clipPath id="686f0f6d10"><path d="M 81.003906 6.34375 L 92.601562 4.574219 C 92.859375 4.53125 93.121094 4.597656 93.332031 4.753906 C 93.542969 4.90625 93.683594 5.136719 93.722656 5.394531 L 101.535156 56.539062 C 101.574219 56.796875 101.507812 57.058594 101.355469 57.269531 C 101.199219 57.480469 100.96875 57.621094 100.710938 57.660156 L 89.113281 59.429688 C 88.855469 59.46875 88.59375 59.40625 88.382812 59.25 C 88.171875 59.097656 88.03125 58.867188 87.992188 58.609375 L 80.179688 7.464844 C 80.140625 7.207031 80.207031 6.945312 80.359375 6.734375 C 80.515625 6.523438 80.746094 6.382812 81.003906 6.34375 Z M 81.003906 6.34375 " clip-rule="nonzero"/></clipPath></defs><g clip-path="url(#60542ea469)"><g clip-path="url(#8e9dcb5326)"><path fill="#ef2346" d="M 45.421875 5.144531 L 64.59375 5.144531 L 64.59375 58.859375 L 45.421875 58.859375 Z M 45.421875 5.144531 " fill-opacity="1" fill-rule="nonzero"/></g></g><g clip-path="url(#7332574917)"><g clip-path="url(#f90c096534)"><path fill="#7073ee" d="M 64.59375 5.085938 L 80.984375 5.085938 L 80.984375 58.804688 L 64.59375 58.804688 Z M 64.59375 5.085938 " fill-opacity="1" fill-rule="nonzero"/></g></g><g clip-path="url(#6feebd2e25)"><g clip-path="url(#defcd4a526)"><g clip-path="url(#686f0f6d10)"><path fill="#faba26" d="M 80.03125 6.492188 L 93.574219 4.425781 L 101.683594 57.511719 L 88.140625 59.578125 Z M 80.03125 6.492188 " fill-opacity="1" fill-rule="nonzero"/></g></g></g><g fill="#07060e" fill-opacity="1"><g transform="translate(112.43999, 30.01387)"><g><path d="M 4.703125 -16.671875 L 4.703125 0 L 1.546875 0 L 1.546875 -16.671875 Z M 4.703125 -16.671875 "/></g></g></g><g fill="#07060e" fill-opacity="1"><g transform="translate(118.138926, 30.01387)"><g><path d="M 3.15625 -13.96875 C 2.601562 -13.96875 2.140625 -14.144531 1.765625 -14.5 C 1.398438 -14.851562 1.21875 -15.289062 1.21875 -15.8125 C 1.21875 -16.34375 1.398438 -16.785156 1.765625 -17.140625 C 2.140625 -17.492188 2.601562 -17.671875 3.15625 -17.671875 C 3.707031 -17.671875 4.164062 -17.492188 4.53125 -17.140625 C 4.90625 -16.785156 5.09375 -16.34375 5.09375 -15.8125 C 5.09375 -15.289062 4.90625 -14.851562 4.53125 -14.5 C 4.164062 -14.144531 3.707031 -13.96875 3.15625 -13.96875 Z M 4.703125 -12.484375 L 4.703125 0 L 1.546875 0 L 1.546875 -12.484375 Z M 4.703125 -12.484375 "/></g></g></g><g fill="#07060e" fill-opacity="1"><g transform="translate(123.837862, 30.01387)"><g><path d="M 4.703125 -10.65625 C 5.109375 -11.257812 5.664062 -11.75 6.375 -12.125 C 7.09375 -12.5 7.910156 -12.6875 8.828125 -12.6875 C 9.898438 -12.6875 10.863281 -12.421875 11.71875 -11.890625 C 12.582031 -11.367188 13.265625 -10.625 13.765625 -9.65625 C 14.273438 -8.6875 14.53125 -7.5625 14.53125 -6.28125 C 14.53125 -5.007812 14.273438 -3.878906 13.765625 -2.890625 C 13.265625 -1.910156 12.582031 -1.148438 11.71875 -0.609375 C 10.863281 -0.0664062 9.898438 0.203125 8.828125 0.203125 C 7.898438 0.203125 7.085938 0.0195312 6.390625 -0.34375 C 5.691406 -0.71875 5.128906 -1.195312 4.703125 -1.78125 L 4.703125 0 L 1.546875 0 L 1.546875 -16.671875 L 4.703125 -16.671875 Z M 11.3125 -6.28125 C 11.3125 -7.03125 11.15625 -7.679688 10.84375 -8.234375 C 10.539062 -8.785156 10.132812 -9.203125 9.625 -9.484375 C 9.125 -9.765625 8.582031 -9.90625 8 -9.90625 C 7.425781 -9.90625 6.890625 -9.757812 6.390625 -9.46875 C 5.890625 -9.175781 5.484375 -8.753906 5.171875 -8.203125 C 4.859375 -7.648438 4.703125 -6.992188 4.703125 -6.234375 C 4.703125 -5.484375 4.859375 -4.832031 5.171875 -4.28125 C 5.484375 -3.726562 5.890625 -3.300781 6.390625 -3 C 6.890625 -2.707031 7.425781 -2.5625 8 -2.5625 C 8.582031 -2.5625 9.125 -2.710938 9.625 -3.015625 C 10.132812 -3.316406 10.539062 -3.742188 10.84375 -4.296875 C 11.15625 -4.859375 11.3125 -5.519531 11.3125 -6.28125 Z M 11.3125 -6.28125 "/></g></g></g><g fill="#07060e" fill-opacity="1"><g transform="translate(138.547347, 30.01387)"><g><path d="M 4.703125 -10.546875 C 5.109375 -11.203125 5.640625 -11.71875 6.296875 -12.09375 C 6.953125 -12.46875 7.703125 -12.65625 8.546875 -12.65625 L 8.546875 -9.34375 L 7.703125 -9.34375 C 6.710938 -9.34375 5.960938 -9.109375 5.453125 -8.640625 C 4.953125 -8.179688 4.703125 -7.375 4.703125 -6.21875 L 4.703125 0 L 1.546875 0 L 1.546875 -12.484375 L 4.703125 -12.484375 Z M 4.703125 -10.546875 "/></g></g></g><g fill="#07060e" fill-opacity="1"><g transform="translate(147.084608, 30.01387)"><g><path d="M 0.75 -6.28125 C 0.75 -7.539062 1 -8.660156 1.5 -9.640625 C 2 -10.617188 2.679688 -11.367188 3.546875 -11.890625 C 4.410156 -12.421875 5.375 -12.6875 6.4375 -12.6875 C 7.375 -12.6875 8.191406 -12.5 8.890625 -12.125 C 9.585938 -11.75 10.144531 -11.273438 10.5625 -10.703125 L 10.5625 -12.484375 L 13.75 -12.484375 L 13.75 0 L 10.5625 0 L 10.5625 -1.828125 C 10.15625 -1.242188 9.59375 -0.757812 8.875 -0.375 C 8.164062 0.0078125 7.347656 0.203125 6.421875 0.203125 C 5.367188 0.203125 4.410156 -0.0664062 3.546875 -0.609375 C 2.679688 -1.148438 2 -1.910156 1.5 -2.890625 C 1 -3.878906 0.75 -5.007812 0.75 -6.28125 Z M 10.5625 -6.234375 C 10.5625 -7.003906 10.410156 -7.660156 10.109375 -8.203125 C 9.816406 -8.753906 9.414062 -9.175781 8.90625 -9.46875 C 8.394531 -9.757812 7.84375 -9.90625 7.25 -9.90625 C 6.664062 -9.90625 6.125 -9.765625 5.625 -9.484375 C 5.132812 -9.203125 4.734375 -8.785156 4.421875 -8.234375 C 4.117188 -7.679688 3.96875 -7.03125 3.96875 -6.28125 C 3.96875 -5.53125 4.117188 -4.875 4.421875 -4.3125 C 4.734375 -3.75 5.140625 -3.316406 5.640625 -3.015625 C 6.148438 -2.710938 6.6875 -2.5625 7.25 -2.5625 C 7.84375 -2.5625 8.394531 -2.707031 8.90625 -3 C 9.414062 -3.300781 9.816406 -3.722656 10.109375 -4.265625 C 10.410156 -4.816406 10.5625 -5.472656 10.5625 -6.234375 Z M 10.5625 -6.234375 "/></g></g></g><g fill="#07060e" fill-opacity="1"><g transform="translate(161.794094, 30.01387)"><g><path d="M 4.703125 -10.546875 C 5.109375 -11.203125 5.640625 -11.71875 6.296875 -12.09375 C 6.953125 -12.46875 7.703125 -12.65625 8.546875 -12.65625 L 8.546875 -9.34375 L 7.703125 -9.34375 C 6.710938 -9.34375 5.960938 -9.109375 5.453125 -8.640625 C 4.953125 -8.179688 4.703125 -7.375 4.703125 -6.21875 L 4.703125 0 L 1.546875 0 L 1.546875 -12.484375 L 4.703125 -12.484375 Z M 4.703125 -10.546875 "/></g></g></g><g fill="#07060e" fill-opacity="1"><g transform="translate(170.331355, 30.01387)"><g><path d="M 13.5 -12.484375 L 5.765625 5.90625 L 2.40625 5.90625 L 5.109375 -0.3125 L 0.109375 -12.484375 L 3.65625 -12.484375 L 6.875 -3.765625 L 10.140625 -12.484375 Z M 13.5 -12.484375 "/></g></g></g><g fill="#07060e" fill-opacity="1"><g transform="translate(112.43999, 53.091892)"><g><path d="M 5.234375 -9.890625 L 5.234375 -3.859375 C 5.234375 -3.429688 5.332031 -3.125 5.53125 -2.9375 C 5.726562 -2.75 6.070312 -2.65625 6.5625 -2.65625 L 8.015625 -2.65625 L 8.015625 0 L 6.03125 0 C 3.375 0 2.046875 -1.289062 2.046875 -3.875 L 2.046875 -9.890625 L 0.5625 -9.890625 L 0.5625 -12.484375 L 2.046875 -12.484375 L 2.046875 -15.5625 L 5.234375 -15.5625 L 5.234375 -12.484375 L 8.015625 -12.484375 L 8.015625 -9.890625 Z M 5.234375 -9.890625 "/></g></g></g><g fill="#07060e" fill-opacity="1"><g transform="translate(120.616831, 53.091892)"><g><path d="M 4.703125 -10.546875 C 5.109375 -11.203125 5.640625 -11.71875 6.296875 -12.09375 C 6.953125 -12.46875 7.703125 -12.65625 8.546875 -12.65625 L 8.546875 -9.34375 L 7.703125 -9.34375 C 6.710938 -9.34375 5.960938 -9.109375 5.453125 -8.640625 C 4.953125 -8.179688 4.703125 -7.375 4.703125 -6.21875 L 4.703125 0 L 1.546875 0 L 1.546875 -12.484375 L 4.703125 -12.484375 Z M 4.703125 -10.546875 "/></g></g></g><g fill="#07060e" fill-opacity="1"><g transform="translate(129.154092, 53.091892)"><g><path d="M 0.75 -6.28125 C 0.75 -7.539062 1 -8.660156 1.5 -9.640625 C 2 -10.617188 2.679688 -11.367188 3.546875 -11.890625 C 4.410156 -12.421875 5.375 -12.6875 6.4375 -12.6875 C 7.375 -12.6875 8.191406 -12.5 8.890625 -12.125 C 9.585938 -11.75 10.144531 -11.273438 10.5625 -10.703125 L 10.5625 -12.484375 L 13.75 -12.484375 L 13.75 0 L 10.5625 0 L 10.5625 -1.828125 C 10.15625 -1.242188 9.59375 -0.757812 8.875 -0.375 C 8.164062 0.0078125 7.347656 0.203125 6.421875 0.203125 C 5.367188 0.203125 4.410156 -0.0664062 3.546875 -0.609375 C 2.679688 -1.148438 2 -1.910156 1.5 -2.890625 C 1 -3.878906 0.75 -5.007812 0.75 -6.28125 Z M 10.5625 -6.234375 C 10.5625 -7.003906 10.410156 -7.660156 10.109375 -8.203125 C 9.816406 -8.753906 9.414062 -9.175781 8.90625 -9.46875 C 8.394531 -9.757812 7.84375 -9.90625 7.25 -9.90625 C 6.664062 -9.90625 6.125 -9.765625 5.625 -9.484375 C 5.132812 -9.203125 4.734375 -8.785156 4.421875 -8.234375 C 4.117188 -7.679688 3.96875 -7.03125 3.96875 -6.28125 C 3.96875 -5.53125 4.117188 -4.875 4.421875 -4.3125 C 4.734375 -3.75 5.140625 -3.316406 5.640625 -3.015625 C 6.148438 -2.710938 6.6875 -2.5625 7.25 -2.5625 C 7.84375 -2.5625 8.394531 -2.707031 8.90625 -3 C 9.414062 -3.300781 9.816406 -3.722656 10.109375 -4.265625 C 10.410156 -4.816406 10.5625 -5.472656 10.5625 -6.234375 Z M 10.5625 -6.234375 "/></g></g></g><g fill="#07060e" fill-opacity="1"><g transform="translate(143.863577, 53.091892)"><g><path d="M 0.75 -6.234375 C 0.75 -7.523438 1.007812 -8.65625 1.53125 -9.625 C 2.0625 -10.59375 2.789062 -11.34375 3.71875 -11.875 C 4.644531 -12.414062 5.710938 -12.6875 6.921875 -12.6875 C 8.460938 -12.6875 9.738281 -12.296875 10.75 -11.515625 C 11.769531 -10.742188 12.453125 -9.660156 12.796875 -8.265625 L 9.390625 -8.265625 C 9.210938 -8.804688 8.910156 -9.226562 8.484375 -9.53125 C 8.054688 -9.84375 7.523438 -10 6.890625 -10 C 5.992188 -10 5.28125 -9.671875 4.75 -9.015625 C 4.226562 -8.367188 3.96875 -7.441406 3.96875 -6.234375 C 3.96875 -5.054688 4.226562 -4.140625 4.75 -3.484375 C 5.28125 -2.828125 5.992188 -2.5 6.890625 -2.5 C 8.171875 -2.5 9.003906 -3.070312 9.390625 -4.21875 L 12.796875 -4.21875 C 12.453125 -2.863281 11.769531 -1.785156 10.75 -0.984375 C 9.726562 -0.191406 8.453125 0.203125 6.921875 0.203125 C 5.710938 0.203125 4.644531 -0.0625 3.71875 -0.59375 C 2.789062 -1.125 2.0625 -1.875 1.53125 -2.84375 C 1.007812 -3.8125 0.75 -4.941406 0.75 -6.234375 Z M 0.75 -6.234375 "/></g></g></g><g fill="#07060e" fill-opacity="1"><g transform="translate(156.861063, 53.091892)"><g><path d="M 8.9375 0 L 4.703125 -5.3125 L 4.703125 0 L 1.546875 0 L 1.546875 -16.671875 L 4.703125 -16.671875 L 4.703125 -7.1875 L 8.90625 -12.484375 L 13 -12.484375 L 7.5 -6.21875 L 13.046875 0 Z M 8.9375 0 "/></g></g></g><g fill="#07060e" fill-opacity="1"><g transform="translate(169.45307, 53.091892)"><g><path d="M 13.15625 -6.515625 C 13.15625 -6.054688 13.125 -5.648438 13.0625 -5.296875 L 3.9375 -5.296875 C 4.019531 -4.390625 4.335938 -3.679688 4.890625 -3.171875 C 5.441406 -2.660156 6.125 -2.40625 6.9375 -2.40625 C 8.113281 -2.40625 8.945312 -2.910156 9.4375 -3.921875 L 12.84375 -3.921875 C 12.476562 -2.722656 11.785156 -1.734375 10.765625 -0.953125 C 9.742188 -0.179688 8.488281 0.203125 7 0.203125 C 5.800781 0.203125 4.722656 -0.0625 3.765625 -0.59375 C 2.816406 -1.125 2.078125 -1.878906 1.546875 -2.859375 C 1.015625 -3.835938 0.75 -4.960938 0.75 -6.234375 C 0.75 -7.523438 1.007812 -8.660156 1.53125 -9.640625 C 2.0625 -10.617188 2.796875 -11.367188 3.734375 -11.890625 C 4.679688 -12.421875 5.769531 -12.6875 7 -12.6875 C 8.1875 -12.6875 9.25 -12.429688 10.1875 -11.921875 C 11.132812 -11.410156 11.863281 -10.6875 12.375 -9.75 C 12.894531 -8.8125 13.15625 -7.734375 13.15625 -6.515625 Z M 9.890625 -7.40625 C 9.878906 -8.21875 9.585938 -8.867188 9.015625 -9.359375 C 8.441406 -9.847656 7.742188 -10.09375 6.921875 -10.09375 C 6.140625 -10.09375 5.476562 -9.851562 4.9375 -9.375 C 4.40625 -8.90625 4.082031 -8.25 3.96875 -7.40625 Z M 9.890625 -7.40625 "/></g></g></g><g fill="#07060e" fill-opacity="1"><g transform="translate(182.788447, 53.091892)"><g><path d="M 4.703125 -10.546875 C 5.109375 -11.203125 5.640625 -11.71875 6.296875 -12.09375 C 6.953125 -12.46875 7.703125 -12.65625 8.546875 -12.65625 L 8.546875 -9.34375 L 7.703125 -9.34375 C 6.710938 -9.34375 5.960938 -9.109375 5.453125 -8.640625 C 4.953125 -8.179688 4.703125 -7.375 4.703125 -6.21875 L 4.703125 0 L 1.546875 0 L 1.546875 -12.484375 L 4.703125 -12.484375 Z M 4.703125 -10.546875 "/></g></g></g></svg>