<svg xmlns="http://www.w3.org/2000/svg" xmlns:xlink="http://www.w3.org/1999/xlink" width="100" zoomAndPan="magnify" viewBox="0 0 75 50.999998" height="68" preserveAspectRatio="xMidYMid meet" version="1.0"><path fill="#ff0000" d="M 73.144531 4.613281 L 75 6.175781 C 74.835938 6.554688 74.417969 6.976562 73.757812 7.449219 C 73.425781 7.589844 73.257812 7.734375 73.257812 7.875 C 73.257812 7.921875 73.34375 8.039062 73.503906 8.230469 C 62.863281 14.378906 53.835938 20.144531 46.40625 25.53125 C 56.390625 33.097656 62.492188 37.425781 64.722656 38.507812 C 64.304688 39.835938 63.402344 40.851562 61.996094 41.558594 C 61.503906 41.796875 60.886719 42.078125 60.140625 42.410156 C 58.824219 43.03125 58.167969 43.359375 58.167969 43.410156 L 58.167969 43.472656 L 58.535156 44.253906 C 58.199219 44.347656 57.910156 44.515625 57.667969 44.75 C 56.757812 45.367188 55.765625 45.792969 54.695312 46.03125 C 54.363281 46.03125 53.953125 45.886719 53.449219 45.601562 C 53.125 45.464844 52.714844 45.296875 52.21875 45.105469 C 51.71875 44.917969 51.484375 44.820312 51.484375 44.820312 C 51.394531 44.773438 51.316406 44.75 51.230469 44.75 C 51.230469 44.75 51.101562 44.800781 50.855469 44.894531 C 49.125 46.125 47.558594 46.90625 46.152344 47.234375 C 45.90625 47.234375 45.574219 47.164062 45.164062 47.019531 C 42.523438 45.464844 39.722656 43.429688 36.75 40.925781 C 34.28125 38.796875 32.425781 37.28125 31.179688 36.382812 L 29.949219 37.375 L 21.40625 43.761719 C 20.335938 44.566406 17.285156 46.976562 12.246094 50.992188 L 10.636719 50.992188 L 8.277344 49.507812 C 8.445312 49.128906 8.535156 48.9375 8.535156 48.9375 C 8.699219 48.65625 8.777344 48.515625 8.777344 48.515625 C 8.777344 48.234375 8.53125 48.089844 8.035156 48.089844 C 7.539062 48.089844 6.800781 48.234375 5.8125 48.515625 C 5.722656 48.515625 5.480469 48.585938 5.070312 48.730469 C 4.160156 48.441406 2.839844 47.496094 1.105469 45.894531 C 0.609375 45.472656 0.367188 45.183594 0.367188 45.042969 C 0.367188 44.949219 0.574219 44.730469 0.984375 44.402344 C 1.5625 43.878906 1.851562 43.453125 1.851562 43.125 C 1.851562 43.03125 1.441406 42.480469 0.613281 41.496094 C 0.203125 40.785156 0.00390625 40.433594 0.00390625 40.433594 L 6.0625 35.964844 L 19.554688 27.03125 C 19.886719 26.742188 20.214844 26.507812 20.542969 26.320312 C 15.183594 20.980469 10.8125 15.683594 7.425781 10.433594 C 6.6875 9.15625 6.234375 8.257812 6.066406 7.742188 C 7.226562 6.699219 8.746094 5.65625 10.652344 4.617188 C 11.476562 4.996094 12.089844 5.28125 12.503906 5.46875 C 12.832031 5.800781 13.160156 5.964844 13.492188 5.964844 C 14.320312 5.964844 14.851562 5.613281 15.101562 4.902344 C 15.351562 3.578125 16.378906 2.890625 18.199219 2.847656 C 18.777344 2.847656 19.558594 3.152344 20.546875 3.765625 C 25.753906 8.636719 30.746094 12.960938 35.523438 16.746094 C 46.257812 9.984375 55.117188 4.761719 62.136719 1.070312 C 63.542969 0.363281 64.316406 0.0078125 64.492188 0.0078125 C 64.902344 0.0078125 66.140625 0.597656 68.207031 1.777344 L 68.945312 2.347656 C 68.945312 2.441406 68.820312 2.605469 68.574219 2.847656 C 68.410156 2.941406 68.332031 3.035156 68.332031 3.125 C 68.332031 3.269531 69.066406 3.648438 70.546875 4.265625 L 72.410156 3.980469 Z M 73.144531 4.613281 " fill-opacity="1" fill-rule="nonzero"/></svg>